<?xml version="1.0" encoding="utf-8" standalone="no"?>
<!DOCTYPE svg PUBLIC "-//W3C//DTD SVG 1.1//EN"
  "http://www.w3.org/Graphics/SVG/1.1/DTD/svg11.dtd">
<svg xmlns:xlink="http://www.w3.org/1999/xlink" width="697.58625pt" height="337.000719pt" viewBox="0 0 697.58625 337.000719" xmlns="http://www.w3.org/2000/svg" version="1.1">
 <metadata>
  <rdf:RDF xmlns:dc="http://purl.org/dc/elements/1.1/" xmlns:cc="http://creativecommons.org/ns#" xmlns:rdf="http://www.w3.org/1999/02/22-rdf-syntax-ns#">
   <cc:Work>
    <dc:type rdf:resource="http://purl.org/dc/dcmitype/StillImage"/>
    <dc:date>2024-10-04T16:40:44.861629</dc:date>
    <dc:format>image/svg+xml</dc:format>
    <dc:creator>
     <cc:Agent>
      <dc:title>Matplotlib v3.9.1.post1, https://matplotlib.org/</dc:title>
     </cc:Agent>
    </dc:creator>
   </cc:Work>
  </rdf:RDF>
 </metadata>
 <defs>
  <style type="text/css">*{stroke-linejoin: round; stroke-linecap: butt}</style>
 </defs>
 <g id="figure_1">
  <g id="patch_1">
   <path d="M 0 337.000719 
L 697.58625 337.000719 
L 697.58625 0 
L 0 0 
z
" style="fill: #ffffff"/>
  </g>
  <g id="axes_1">
   <g id="patch_2">
    <path d="M 39.765625 296.222594 
L 645.095625 296.222594 
L 645.095625 3.799219 
L 39.765625 3.799219 
z
" style="fill: #ffffff"/>
   </g>
   <g id="matplotlib.axis_1">
    <g id="xtick_1">
     <g id="line2d_1">
      <defs>
       <path id="m1c9980af87" d="M 0 0 
L 0 3.5 
" style="stroke: #000000; stroke-width: 0.8"/>
      </defs>
      <g>
       <use xlink:href="#m1c9980af87" x="39.765625" y="296.222594" style="stroke: #000000; stroke-width: 0.8"/>
      </g>
     </g>
     <g id="text_1">
      <!-- 0.1 -->
      <g transform="translate(31.814062 310.821031) scale(0.1 -0.1)">
       <defs>
        <path id="DejaVuSans-30" d="M 2034 4250 
Q 1547 4250 1301 3770 
Q 1056 3291 1056 2328 
Q 1056 1369 1301 889 
Q 1547 409 2034 409 
Q 2525 409 2770 889 
Q 3016 1369 3016 2328 
Q 3016 3291 2770 3770 
Q 2525 4250 2034 4250 
z
M 2034 4750 
Q 2819 4750 3233 4129 
Q 3647 3509 3647 2328 
Q 3647 1150 3233 529 
Q 2819 -91 2034 -91 
Q 1250 -91 836 529 
Q 422 1150 422 2328 
Q 422 3509 836 4129 
Q 1250 4750 2034 4750 
z
" transform="scale(0.015625)"/>
        <path id="DejaVuSans-2e" d="M 684 794 
L 1344 794 
L 1344 0 
L 684 0 
L 684 794 
z
" transform="scale(0.015625)"/>
        <path id="DejaVuSans-31" d="M 794 531 
L 1825 531 
L 1825 4091 
L 703 3866 
L 703 4441 
L 1819 4666 
L 2450 4666 
L 2450 531 
L 3481 531 
L 3481 0 
L 794 0 
L 794 531 
z
" transform="scale(0.015625)"/>
       </defs>
       <use xlink:href="#DejaVuSans-30"/>
       <use xlink:href="#DejaVuSans-2e" x="63.623047"/>
       <use xlink:href="#DejaVuSans-31" x="95.410156"/>
      </g>
     </g>
    </g>
    <g id="xtick_2">
     <g id="line2d_2">
      <g>
       <use xlink:href="#m1c9980af87" x="107.024514" y="296.222594" style="stroke: #000000; stroke-width: 0.8"/>
      </g>
     </g>
     <g id="text_2">
      <!-- 0.2 -->
      <g transform="translate(99.072951 310.821031) scale(0.1 -0.1)">
       <defs>
        <path id="DejaVuSans-32" d="M 1228 531 
L 3431 531 
L 3431 0 
L 469 0 
L 469 531 
Q 828 903 1448 1529 
Q 2069 2156 2228 2338 
Q 2531 2678 2651 2914 
Q 2772 3150 2772 3378 
Q 2772 3750 2511 3984 
Q 2250 4219 1831 4219 
Q 1534 4219 1204 4116 
Q 875 4013 500 3803 
L 500 4441 
Q 881 4594 1212 4672 
Q 1544 4750 1819 4750 
Q 2544 4750 2975 4387 
Q 3406 4025 3406 3419 
Q 3406 3131 3298 2873 
Q 3191 2616 2906 2266 
Q 2828 2175 2409 1742 
Q 1991 1309 1228 531 
z
" transform="scale(0.015625)"/>
       </defs>
       <use xlink:href="#DejaVuSans-30"/>
       <use xlink:href="#DejaVuSans-2e" x="63.623047"/>
       <use xlink:href="#DejaVuSans-32" x="95.410156"/>
      </g>
     </g>
    </g>
    <g id="xtick_3">
     <g id="line2d_3">
      <g>
       <use xlink:href="#m1c9980af87" x="174.283403" y="296.222594" style="stroke: #000000; stroke-width: 0.8"/>
      </g>
     </g>
     <g id="text_3">
      <!-- 0.3 -->
      <g transform="translate(166.33184 310.821031) scale(0.1 -0.1)">
       <defs>
        <path id="DejaVuSans-33" d="M 2597 2516 
Q 3050 2419 3304 2112 
Q 3559 1806 3559 1356 
Q 3559 666 3084 287 
Q 2609 -91 1734 -91 
Q 1441 -91 1130 -33 
Q 819 25 488 141 
L 488 750 
Q 750 597 1062 519 
Q 1375 441 1716 441 
Q 2309 441 2620 675 
Q 2931 909 2931 1356 
Q 2931 1769 2642 2001 
Q 2353 2234 1838 2234 
L 1294 2234 
L 1294 2753 
L 1863 2753 
Q 2328 2753 2575 2939 
Q 2822 3125 2822 3475 
Q 2822 3834 2567 4026 
Q 2313 4219 1838 4219 
Q 1578 4219 1281 4162 
Q 984 4106 628 3988 
L 628 4550 
Q 988 4650 1302 4700 
Q 1616 4750 1894 4750 
Q 2613 4750 3031 4423 
Q 3450 4097 3450 3541 
Q 3450 3153 3228 2886 
Q 3006 2619 2597 2516 
z
" transform="scale(0.015625)"/>
       </defs>
       <use xlink:href="#DejaVuSans-30"/>
       <use xlink:href="#DejaVuSans-2e" x="63.623047"/>
       <use xlink:href="#DejaVuSans-33" x="95.410156"/>
      </g>
     </g>
    </g>
    <g id="xtick_4">
     <g id="line2d_4">
      <g>
       <use xlink:href="#m1c9980af87" x="241.542292" y="296.222594" style="stroke: #000000; stroke-width: 0.8"/>
      </g>
     </g>
     <g id="text_4">
      <!-- 0.4 -->
      <g transform="translate(233.590729 310.821031) scale(0.1 -0.1)">
       <defs>
        <path id="DejaVuSans-34" d="M 2419 4116 
L 825 1625 
L 2419 1625 
L 2419 4116 
z
M 2253 4666 
L 3047 4666 
L 3047 1625 
L 3713 1625 
L 3713 1100 
L 3047 1100 
L 3047 0 
L 2419 0 
L 2419 1100 
L 313 1100 
L 313 1709 
L 2253 4666 
z
" transform="scale(0.015625)"/>
       </defs>
       <use xlink:href="#DejaVuSans-30"/>
       <use xlink:href="#DejaVuSans-2e" x="63.623047"/>
       <use xlink:href="#DejaVuSans-34" x="95.410156"/>
      </g>
     </g>
    </g>
    <g id="xtick_5">
     <g id="line2d_5">
      <g>
       <use xlink:href="#m1c9980af87" x="308.801181" y="296.222594" style="stroke: #000000; stroke-width: 0.8"/>
      </g>
     </g>
     <g id="text_5">
      <!-- 0.5 -->
      <g transform="translate(300.849618 310.821031) scale(0.1 -0.1)">
       <defs>
        <path id="DejaVuSans-35" d="M 691 4666 
L 3169 4666 
L 3169 4134 
L 1269 4134 
L 1269 2991 
Q 1406 3038 1543 3061 
Q 1681 3084 1819 3084 
Q 2600 3084 3056 2656 
Q 3513 2228 3513 1497 
Q 3513 744 3044 326 
Q 2575 -91 1722 -91 
Q 1428 -91 1123 -41 
Q 819 9 494 109 
L 494 744 
Q 775 591 1075 516 
Q 1375 441 1709 441 
Q 2250 441 2565 725 
Q 2881 1009 2881 1497 
Q 2881 1984 2565 2268 
Q 2250 2553 1709 2553 
Q 1456 2553 1204 2497 
Q 953 2441 691 2322 
L 691 4666 
z
" transform="scale(0.015625)"/>
       </defs>
       <use xlink:href="#DejaVuSans-30"/>
       <use xlink:href="#DejaVuSans-2e" x="63.623047"/>
       <use xlink:href="#DejaVuSans-35" x="95.410156"/>
      </g>
     </g>
    </g>
    <g id="xtick_6">
     <g id="line2d_6">
      <g>
       <use xlink:href="#m1c9980af87" x="376.060069" y="296.222594" style="stroke: #000000; stroke-width: 0.8"/>
      </g>
     </g>
     <g id="text_6">
      <!-- 0.6 -->
      <g transform="translate(368.108507 310.821031) scale(0.1 -0.1)">
       <defs>
        <path id="DejaVuSans-36" d="M 2113 2584 
Q 1688 2584 1439 2293 
Q 1191 2003 1191 1497 
Q 1191 994 1439 701 
Q 1688 409 2113 409 
Q 2538 409 2786 701 
Q 3034 994 3034 1497 
Q 3034 2003 2786 2293 
Q 2538 2584 2113 2584 
z
M 3366 4563 
L 3366 3988 
Q 3128 4100 2886 4159 
Q 2644 4219 2406 4219 
Q 1781 4219 1451 3797 
Q 1122 3375 1075 2522 
Q 1259 2794 1537 2939 
Q 1816 3084 2150 3084 
Q 2853 3084 3261 2657 
Q 3669 2231 3669 1497 
Q 3669 778 3244 343 
Q 2819 -91 2113 -91 
Q 1303 -91 875 529 
Q 447 1150 447 2328 
Q 447 3434 972 4092 
Q 1497 4750 2381 4750 
Q 2619 4750 2861 4703 
Q 3103 4656 3366 4563 
z
" transform="scale(0.015625)"/>
       </defs>
       <use xlink:href="#DejaVuSans-30"/>
       <use xlink:href="#DejaVuSans-2e" x="63.623047"/>
       <use xlink:href="#DejaVuSans-36" x="95.410156"/>
      </g>
     </g>
    </g>
    <g id="xtick_7">
     <g id="line2d_7">
      <g>
       <use xlink:href="#m1c9980af87" x="443.318958" y="296.222594" style="stroke: #000000; stroke-width: 0.8"/>
      </g>
     </g>
     <g id="text_7">
      <!-- 0.7 -->
      <g transform="translate(435.367396 310.821031) scale(0.1 -0.1)">
       <defs>
        <path id="DejaVuSans-37" d="M 525 4666 
L 3525 4666 
L 3525 4397 
L 1831 0 
L 1172 0 
L 2766 4134 
L 525 4134 
L 525 4666 
z
" transform="scale(0.015625)"/>
       </defs>
       <use xlink:href="#DejaVuSans-30"/>
       <use xlink:href="#DejaVuSans-2e" x="63.623047"/>
       <use xlink:href="#DejaVuSans-37" x="95.410156"/>
      </g>
     </g>
    </g>
    <g id="xtick_8">
     <g id="line2d_8">
      <g>
       <use xlink:href="#m1c9980af87" x="510.577847" y="296.222594" style="stroke: #000000; stroke-width: 0.8"/>
      </g>
     </g>
     <g id="text_8">
      <!-- 0.8 -->
      <g transform="translate(502.626285 310.821031) scale(0.1 -0.1)">
       <defs>
        <path id="DejaVuSans-38" d="M 2034 2216 
Q 1584 2216 1326 1975 
Q 1069 1734 1069 1313 
Q 1069 891 1326 650 
Q 1584 409 2034 409 
Q 2484 409 2743 651 
Q 3003 894 3003 1313 
Q 3003 1734 2745 1975 
Q 2488 2216 2034 2216 
z
M 1403 2484 
Q 997 2584 770 2862 
Q 544 3141 544 3541 
Q 544 4100 942 4425 
Q 1341 4750 2034 4750 
Q 2731 4750 3128 4425 
Q 3525 4100 3525 3541 
Q 3525 3141 3298 2862 
Q 3072 2584 2669 2484 
Q 3125 2378 3379 2068 
Q 3634 1759 3634 1313 
Q 3634 634 3220 271 
Q 2806 -91 2034 -91 
Q 1263 -91 848 271 
Q 434 634 434 1313 
Q 434 1759 690 2068 
Q 947 2378 1403 2484 
z
M 1172 3481 
Q 1172 3119 1398 2916 
Q 1625 2713 2034 2713 
Q 2441 2713 2670 2916 
Q 2900 3119 2900 3481 
Q 2900 3844 2670 4047 
Q 2441 4250 2034 4250 
Q 1625 4250 1398 4047 
Q 1172 3844 1172 3481 
z
" transform="scale(0.015625)"/>
       </defs>
       <use xlink:href="#DejaVuSans-30"/>
       <use xlink:href="#DejaVuSans-2e" x="63.623047"/>
       <use xlink:href="#DejaVuSans-38" x="95.410156"/>
      </g>
     </g>
    </g>
    <g id="xtick_9">
     <g id="line2d_9">
      <g>
       <use xlink:href="#m1c9980af87" x="577.836736" y="296.222594" style="stroke: #000000; stroke-width: 0.8"/>
      </g>
     </g>
     <g id="text_9">
      <!-- 0.9 -->
      <g transform="translate(569.885174 310.821031) scale(0.1 -0.1)">
       <defs>
        <path id="DejaVuSans-39" d="M 703 97 
L 703 672 
Q 941 559 1184 500 
Q 1428 441 1663 441 
Q 2288 441 2617 861 
Q 2947 1281 2994 2138 
Q 2813 1869 2534 1725 
Q 2256 1581 1919 1581 
Q 1219 1581 811 2004 
Q 403 2428 403 3163 
Q 403 3881 828 4315 
Q 1253 4750 1959 4750 
Q 2769 4750 3195 4129 
Q 3622 3509 3622 2328 
Q 3622 1225 3098 567 
Q 2575 -91 1691 -91 
Q 1453 -91 1209 -44 
Q 966 3 703 97 
z
M 1959 2075 
Q 2384 2075 2632 2365 
Q 2881 2656 2881 3163 
Q 2881 3666 2632 3958 
Q 2384 4250 1959 4250 
Q 1534 4250 1286 3958 
Q 1038 3666 1038 3163 
Q 1038 2656 1286 2365 
Q 1534 2075 1959 2075 
z
" transform="scale(0.015625)"/>
       </defs>
       <use xlink:href="#DejaVuSans-30"/>
       <use xlink:href="#DejaVuSans-2e" x="63.623047"/>
       <use xlink:href="#DejaVuSans-39" x="95.410156"/>
      </g>
     </g>
    </g>
    <g id="xtick_10">
     <g id="line2d_10">
      <g>
       <use xlink:href="#m1c9980af87" x="645.095625" y="296.222594" style="stroke: #000000; stroke-width: 0.8"/>
      </g>
     </g>
     <g id="text_10">
      <!-- 1.0 -->
      <g transform="translate(637.144063 310.821031) scale(0.1 -0.1)">
       <use xlink:href="#DejaVuSans-31"/>
       <use xlink:href="#DejaVuSans-2e" x="63.623047"/>
       <use xlink:href="#DejaVuSans-30" x="95.410156"/>
      </g>
     </g>
    </g>
    <g id="xtick_11">
     <g id="line2d_11">
      <g>
       <use xlink:href="#m1c9980af87" x="308.801181" y="296.222594" style="stroke: #000000; stroke-width: 0.8"/>
      </g>
     </g>
     <g id="text_11">
      <!-- 0.5 -->
      <g transform="translate(300.849618 310.821031) scale(0.1 -0.1)">
       <use xlink:href="#DejaVuSans-30"/>
       <use xlink:href="#DejaVuSans-2e" x="63.623047"/>
       <use xlink:href="#DejaVuSans-35" x="95.410156"/>
      </g>
     </g>
    </g>
    <g id="text_12">
     <!-- $\pi^{(n)}[1] = \frac{a}{a+b}$ -->
     <g transform="translate(296.155625 330.700719) scale(0.15 -0.15)">
      <defs>
       <path id="DejaVuSans-Oblique-3c0" d="M 584 3500 
L 3938 3500 
L 3825 2925 
L 3384 2925 
L 2966 775 
Q 2922 550 2981 450 
Q 3038 353 3209 353 
Q 3256 353 3325 363 
Q 3397 369 3419 372 
L 3338 -44 
Q 3222 -84 3103 -103 
Q 2981 -122 2866 -122 
Q 2491 -122 2388 81 
Q 2284 288 2391 838 
L 2797 2925 
L 1506 2925 
L 938 0 
L 350 0 
L 919 2925 
L 472 2925 
L 584 3500 
z
" transform="scale(0.015625)"/>
       <path id="DejaVuSans-28" d="M 1984 4856 
Q 1566 4138 1362 3434 
Q 1159 2731 1159 2009 
Q 1159 1288 1364 580 
Q 1569 -128 1984 -844 
L 1484 -844 
Q 1016 -109 783 600 
Q 550 1309 550 2009 
Q 550 2706 781 3412 
Q 1013 4119 1484 4856 
L 1984 4856 
z
" transform="scale(0.015625)"/>
       <path id="DejaVuSans-Oblique-6e" d="M 3566 2113 
L 3156 0 
L 2578 0 
L 2988 2091 
Q 3016 2238 3031 2350 
Q 3047 2463 3047 2528 
Q 3047 2791 2881 2937 
Q 2716 3084 2419 3084 
Q 1956 3084 1622 2776 
Q 1288 2469 1184 1941 
L 800 0 
L 225 0 
L 903 3500 
L 1478 3500 
L 1363 2950 
Q 1603 3253 1940 3418 
Q 2278 3584 2650 3584 
Q 3113 3584 3367 3334 
Q 3622 3084 3622 2631 
Q 3622 2519 3608 2391 
Q 3594 2263 3566 2113 
z
" transform="scale(0.015625)"/>
       <path id="DejaVuSans-29" d="M 513 4856 
L 1013 4856 
Q 1481 4119 1714 3412 
Q 1947 2706 1947 2009 
Q 1947 1309 1714 600 
Q 1481 -109 1013 -844 
L 513 -844 
Q 928 -128 1133 580 
Q 1338 1288 1338 2009 
Q 1338 2731 1133 3434 
Q 928 4138 513 4856 
z
" transform="scale(0.015625)"/>
       <path id="DejaVuSans-5b" d="M 550 4863 
L 1875 4863 
L 1875 4416 
L 1125 4416 
L 1125 -397 
L 1875 -397 
L 1875 -844 
L 550 -844 
L 550 4863 
z
" transform="scale(0.015625)"/>
       <path id="DejaVuSans-5d" d="M 1947 4863 
L 1947 -844 
L 622 -844 
L 622 -397 
L 1369 -397 
L 1369 4416 
L 622 4416 
L 622 4863 
L 1947 4863 
z
" transform="scale(0.015625)"/>
       <path id="DejaVuSans-3d" d="M 678 2906 
L 4684 2906 
L 4684 2381 
L 678 2381 
L 678 2906 
z
M 678 1631 
L 4684 1631 
L 4684 1100 
L 678 1100 
L 678 1631 
z
" transform="scale(0.015625)"/>
       <path id="DejaVuSans-Oblique-61" d="M 3438 1997 
L 3047 0 
L 2472 0 
L 2578 531 
Q 2325 219 2001 64 
Q 1678 -91 1281 -91 
Q 834 -91 548 182 
Q 263 456 263 884 
Q 263 1497 752 1853 
Q 1241 2209 2100 2209 
L 2900 2209 
L 2931 2363 
Q 2938 2388 2941 2417 
Q 2944 2447 2944 2509 
Q 2944 2788 2717 2942 
Q 2491 3097 2081 3097 
Q 1800 3097 1504 3025 
Q 1209 2953 897 2809 
L 997 3341 
Q 1322 3463 1633 3523 
Q 1944 3584 2234 3584 
Q 2853 3584 3176 3315 
Q 3500 3047 3500 2534 
Q 3500 2431 3484 2292 
Q 3469 2153 3438 1997 
z
M 2816 1759 
L 2241 1759 
Q 1534 1759 1195 1570 
Q 856 1381 856 984 
Q 856 709 1029 553 
Q 1203 397 1509 397 
Q 1978 397 2328 733 
Q 2678 1069 2791 1631 
L 2816 1759 
z
" transform="scale(0.015625)"/>
       <path id="DejaVuSans-2b" d="M 2944 4013 
L 2944 2272 
L 4684 2272 
L 4684 1741 
L 2944 1741 
L 2944 0 
L 2419 0 
L 2419 1741 
L 678 1741 
L 678 2272 
L 2419 2272 
L 2419 4013 
L 2944 4013 
z
" transform="scale(0.015625)"/>
       <path id="DejaVuSans-Oblique-62" d="M 3169 2138 
Q 3169 2591 2961 2847 
Q 2753 3103 2388 3103 
Q 2122 3103 1889 2973 
Q 1656 2844 1484 2597 
Q 1303 2338 1198 1995 
Q 1094 1653 1094 1313 
Q 1094 881 1298 636 
Q 1503 391 1863 391 
Q 2134 391 2365 517 
Q 2597 644 2772 891 
Q 2950 1147 3059 1487 
Q 3169 1828 3169 2138 
z
M 1381 2969 
Q 1594 3256 1914 3420 
Q 2234 3584 2584 3584 
Q 3122 3584 3439 3221 
Q 3756 2859 3756 2241 
Q 3756 1734 3570 1259 
Q 3384 784 3041 416 
Q 2816 172 2522 40 
Q 2228 -91 1906 -91 
Q 1566 -91 1316 65 
Q 1066 222 909 531 
L 806 0 
L 231 0 
L 1178 4863 
L 1753 4863 
L 1381 2969 
z
" transform="scale(0.015625)"/>
      </defs>
      <use xlink:href="#DejaVuSans-Oblique-3c0" transform="translate(0 0.60625)"/>
      <use xlink:href="#DejaVuSans-28" transform="translate(64.671224 38.8875) scale(0.7)"/>
      <use xlink:href="#DejaVuSans-Oblique-6e" transform="translate(91.980794 38.8875) scale(0.7)"/>
      <use xlink:href="#DejaVuSans-29" transform="translate(136.346029 38.8875) scale(0.7)"/>
      <use xlink:href="#DejaVuSans-5b" transform="translate(166.389974 0.60625)"/>
      <use xlink:href="#DejaVuSans-31" transform="translate(205.403646 0.60625)"/>
      <use xlink:href="#DejaVuSans-5d" transform="translate(269.026693 0.60625)"/>
      <use xlink:href="#DejaVuSans-3d" transform="translate(327.522786 0.60625)"/>
      <use xlink:href="#DejaVuSans-Oblique-61" transform="translate(495.794271 45.398438) scale(0.7)"/>
      <use xlink:href="#DejaVuSans-Oblique-61" transform="translate(430.794271 -40.035937) scale(0.7)"/>
      <use xlink:href="#DejaVuSans-2b" transform="translate(487.327474 -40.035937) scale(0.7)"/>
      <use xlink:href="#DejaVuSans-Oblique-62" transform="translate(559.617513 -40.035937) scale(0.7)"/>
      <path d="M 430.794271 19.403125 
L 430.794271 25.653125 
L 604.051107 25.653125 
L 604.051107 19.403125 
L 430.794271 19.403125 
z
"/>
     </g>
    </g>
   </g>
   <g id="matplotlib.axis_2">
    <g id="ytick_1">
     <g id="line2d_12">
      <path d="M 39.765625 296.222594 
L 645.095625 296.222594 
" clip-path="url(#p7fcca1d0d7)" style="fill: none; stroke-dasharray: 2.96,1.28; stroke-dashoffset: 0; stroke: #808080; stroke-width: 0.8"/>
     </g>
     <g id="line2d_13">
      <defs>
       <path id="m3ec079a7c5" d="M 0 0 
L -3.5 0 
" style="stroke: #000000; stroke-width: 0.8"/>
      </defs>
      <g>
       <use xlink:href="#m3ec079a7c5" x="39.765625" y="296.222594" style="stroke: #000000; stroke-width: 0.8"/>
      </g>
     </g>
     <g id="text_13">
      <!-- 0 -->
      <g transform="translate(26.403125 300.021813) scale(0.1 -0.1)">
       <use xlink:href="#DejaVuSans-30"/>
      </g>
     </g>
    </g>
    <g id="ytick_2">
     <g id="line2d_14">
      <path d="M 39.765625 235.014143 
L 645.095625 235.014143 
" clip-path="url(#p7fcca1d0d7)" style="fill: none; stroke-dasharray: 2.96,1.28; stroke-dashoffset: 0; stroke: #808080; stroke-width: 0.8"/>
     </g>
     <g id="line2d_15">
      <g>
       <use xlink:href="#m3ec079a7c5" x="39.765625" y="235.014143" style="stroke: #000000; stroke-width: 0.8"/>
      </g>
     </g>
     <g id="text_14">
      <!-- 200 -->
      <g transform="translate(13.678125 238.813361) scale(0.1 -0.1)">
       <use xlink:href="#DejaVuSans-32"/>
       <use xlink:href="#DejaVuSans-30" x="63.623047"/>
       <use xlink:href="#DejaVuSans-30" x="127.246094"/>
      </g>
     </g>
    </g>
    <g id="ytick_3">
     <g id="line2d_16">
      <path d="M 39.765625 173.805692 
L 645.095625 173.805692 
" clip-path="url(#p7fcca1d0d7)" style="fill: none; stroke-dasharray: 2.96,1.28; stroke-dashoffset: 0; stroke: #808080; stroke-width: 0.8"/>
     </g>
     <g id="line2d_17">
      <g>
       <use xlink:href="#m3ec079a7c5" x="39.765625" y="173.805692" style="stroke: #000000; stroke-width: 0.8"/>
      </g>
     </g>
     <g id="text_15">
      <!-- 400 -->
      <g transform="translate(13.678125 177.60491) scale(0.1 -0.1)">
       <use xlink:href="#DejaVuSans-34"/>
       <use xlink:href="#DejaVuSans-30" x="63.623047"/>
       <use xlink:href="#DejaVuSans-30" x="127.246094"/>
      </g>
     </g>
    </g>
    <g id="ytick_4">
     <g id="line2d_18">
      <path d="M 39.765625 112.597241 
L 645.095625 112.597241 
" clip-path="url(#p7fcca1d0d7)" style="fill: none; stroke-dasharray: 2.96,1.28; stroke-dashoffset: 0; stroke: #808080; stroke-width: 0.8"/>
     </g>
     <g id="line2d_19">
      <g>
       <use xlink:href="#m3ec079a7c5" x="39.765625" y="112.597241" style="stroke: #000000; stroke-width: 0.8"/>
      </g>
     </g>
     <g id="text_16">
      <!-- 600 -->
      <g transform="translate(13.678125 116.396459) scale(0.1 -0.1)">
       <use xlink:href="#DejaVuSans-36"/>
       <use xlink:href="#DejaVuSans-30" x="63.623047"/>
       <use xlink:href="#DejaVuSans-30" x="127.246094"/>
      </g>
     </g>
    </g>
    <g id="ytick_5">
     <g id="line2d_20">
      <path d="M 39.765625 51.388789 
L 645.095625 51.388789 
" clip-path="url(#p7fcca1d0d7)" style="fill: none; stroke-dasharray: 2.96,1.28; stroke-dashoffset: 0; stroke: #808080; stroke-width: 0.8"/>
     </g>
     <g id="line2d_21">
      <g>
       <use xlink:href="#m3ec079a7c5" x="39.765625" y="51.388789" style="stroke: #000000; stroke-width: 0.8"/>
      </g>
     </g>
     <g id="text_17">
      <!-- 800 -->
      <g transform="translate(13.678125 55.188008) scale(0.1 -0.1)">
       <use xlink:href="#DejaVuSans-38"/>
       <use xlink:href="#DejaVuSans-30" x="63.623047"/>
       <use xlink:href="#DejaVuSans-30" x="127.246094"/>
      </g>
     </g>
    </g>
    <g id="text_18">
     <!-- PDF -->
     <g transform="translate(7.598437 159.751531) rotate(-90) scale(0.1 -0.1)">
      <defs>
       <path id="DejaVuSans-50" d="M 1259 4147 
L 1259 2394 
L 2053 2394 
Q 2494 2394 2734 2622 
Q 2975 2850 2975 3272 
Q 2975 3691 2734 3919 
Q 2494 4147 2053 4147 
L 1259 4147 
z
M 628 4666 
L 2053 4666 
Q 2838 4666 3239 4311 
Q 3641 3956 3641 3272 
Q 3641 2581 3239 2228 
Q 2838 1875 2053 1875 
L 1259 1875 
L 1259 0 
L 628 0 
L 628 4666 
z
" transform="scale(0.015625)"/>
       <path id="DejaVuSans-44" d="M 1259 4147 
L 1259 519 
L 2022 519 
Q 2988 519 3436 956 
Q 3884 1394 3884 2338 
Q 3884 3275 3436 3711 
Q 2988 4147 2022 4147 
L 1259 4147 
z
M 628 4666 
L 1925 4666 
Q 3281 4666 3915 4102 
Q 4550 3538 4550 2338 
Q 4550 1131 3912 565 
Q 3275 0 1925 0 
L 628 0 
L 628 4666 
z
" transform="scale(0.015625)"/>
       <path id="DejaVuSans-46" d="M 628 4666 
L 3309 4666 
L 3309 4134 
L 1259 4134 
L 1259 2759 
L 3109 2759 
L 3109 2228 
L 1259 2228 
L 1259 0 
L 628 0 
L 628 4666 
z
" transform="scale(0.015625)"/>
      </defs>
      <use xlink:href="#DejaVuSans-50"/>
      <use xlink:href="#DejaVuSans-44" x="60.302734"/>
      <use xlink:href="#DejaVuSans-46" x="137.304688"/>
     </g>
    </g>
   </g>
   <g id="patch_3">
    <path d="M 69.292937 299.222594 
L 83.772902 299.222594 
L 83.772902 298.610509 
L 69.292937 298.610509 
L 69.292937 299.222594 
z
" clip-path="url(#p7fcca1d0d7)" style="fill: none; opacity: 0.3; stroke: #000000; stroke-width: 3; stroke-linejoin: miter"/>
    <path d="M 68.292937 296.222594 
L 82.772902 296.222594 
L 82.772902 295.610509 
L 68.292937 295.610509 
z
" clip-path="url(#p7fcca1d0d7)" style="fill: #ef6c00; stroke: #ef6c00; stroke-linejoin: miter"/>
   </g>
   <g id="patch_4">
    <path d="M 88.599556 299.222594 
L 103.079521 299.222594 
L 103.079521 297.998425 
L 88.599556 297.998425 
L 88.599556 299.222594 
z
" clip-path="url(#p7fcca1d0d7)" style="fill: none; opacity: 0.3; stroke: #000000; stroke-width: 3; stroke-linejoin: miter"/>
    <path d="M 87.599556 296.222594 
L 102.079521 296.222594 
L 102.079521 294.998425 
L 87.599556 294.998425 
z
" clip-path="url(#p7fcca1d0d7)" style="fill: #ef6c00; stroke: #ef6c00; stroke-linejoin: miter"/>
   </g>
   <g id="patch_5">
    <path d="M 107.906176 299.222594 
L 122.38614 299.222594 
L 122.38614 294.63196 
L 107.906176 294.63196 
L 107.906176 299.222594 
z
" clip-path="url(#p7fcca1d0d7)" style="fill: none; opacity: 0.3; stroke: #000000; stroke-width: 3; stroke-linejoin: miter"/>
    <path d="M 106.906176 296.222594 
L 121.38614 296.222594 
L 121.38614 291.63196 
L 106.906176 291.63196 
z
" clip-path="url(#p7fcca1d0d7)" style="fill: #ef6c00; stroke: #ef6c00; stroke-linejoin: miter"/>
   </g>
   <g id="patch_6">
    <path d="M 127.212795 299.222594 
L 141.69276 299.222594 
L 141.69276 286.368819 
L 127.212795 286.368819 
L 127.212795 299.222594 
z
" clip-path="url(#p7fcca1d0d7)" style="fill: none; opacity: 0.3; stroke: #000000; stroke-width: 3; stroke-linejoin: miter"/>
    <path d="M 126.212795 296.222594 
L 140.69276 296.222594 
L 140.69276 283.368819 
L 126.212795 283.368819 
z
" clip-path="url(#p7fcca1d0d7)" style="fill: #ef6c00; stroke: #ef6c00; stroke-linejoin: miter"/>
   </g>
   <g id="patch_7">
    <path d="M 146.519414 299.222594 
L 160.999379 299.222594 
L 160.999379 260.967312 
L 146.519414 260.967312 
L 146.519414 299.222594 
z
" clip-path="url(#p7fcca1d0d7)" style="fill: none; opacity: 0.3; stroke: #000000; stroke-width: 3; stroke-linejoin: miter"/>
    <path d="M 145.519414 296.222594 
L 159.999379 296.222594 
L 159.999379 257.967312 
L 145.519414 257.967312 
z
" clip-path="url(#p7fcca1d0d7)" style="fill: #ef6c00; stroke: #ef6c00; stroke-linejoin: miter"/>
   </g>
   <g id="patch_8">
    <path d="M 165.826034 299.222594 
L 180.305998 299.222594 
L 180.305998 222.405988 
L 165.826034 222.405988 
L 165.826034 299.222594 
z
" clip-path="url(#p7fcca1d0d7)" style="fill: none; opacity: 0.3; stroke: #000000; stroke-width: 3; stroke-linejoin: miter"/>
    <path d="M 164.826034 296.222594 
L 179.305998 296.222594 
L 179.305998 219.405988 
L 164.826034 219.405988 
z
" clip-path="url(#p7fcca1d0d7)" style="fill: #ef6c00; stroke: #ef6c00; stroke-linejoin: miter"/>
   </g>
   <g id="patch_9">
    <path d="M 185.132653 299.222594 
L 199.612618 299.222594 
L 199.612618 142.528959 
L 185.132653 142.528959 
L 185.132653 299.222594 
z
" clip-path="url(#p7fcca1d0d7)" style="fill: none; opacity: 0.3; stroke: #000000; stroke-width: 3; stroke-linejoin: miter"/>
    <path d="M 184.132653 296.222594 
L 198.612618 296.222594 
L 198.612618 139.528959 
L 184.132653 139.528959 
z
" clip-path="url(#p7fcca1d0d7)" style="fill: #ef6c00; stroke: #ef6c00; stroke-linejoin: miter"/>
   </g>
   <g id="patch_10">
    <path d="M 204.439272 299.222594 
L 218.919237 299.222594 
L 218.919237 66.324437 
L 204.439272 66.324437 
L 204.439272 299.222594 
z
" clip-path="url(#p7fcca1d0d7)" style="fill: none; opacity: 0.3; stroke: #000000; stroke-width: 3; stroke-linejoin: miter"/>
    <path d="M 203.439272 296.222594 
L 217.919237 296.222594 
L 217.919237 63.324437 
L 203.439272 63.324437 
z
" clip-path="url(#p7fcca1d0d7)" style="fill: #ef6c00; stroke: #ef6c00; stroke-linejoin: miter"/>
   </g>
   <g id="patch_11">
    <path d="M 223.745892 299.222594 
L 238.225856 299.222594 
L 238.225856 20.724141 
L 223.745892 20.724141 
L 223.745892 299.222594 
z
" clip-path="url(#p7fcca1d0d7)" style="fill: none; opacity: 0.3; stroke: #000000; stroke-width: 3; stroke-linejoin: miter"/>
    <path d="M 222.745892 296.222594 
L 237.225856 296.222594 
L 237.225856 17.724141 
L 222.745892 17.724141 
z
" clip-path="url(#p7fcca1d0d7)" style="fill: #ef6c00; stroke: #ef6c00; stroke-linejoin: miter"/>
   </g>
   <g id="patch_12">
    <path d="M 243.052511 299.222594 
L 257.532476 299.222594 
L 257.532476 37.250423 
L 243.052511 37.250423 
L 243.052511 299.222594 
z
" clip-path="url(#p7fcca1d0d7)" style="fill: none; opacity: 0.3; stroke: #000000; stroke-width: 3; stroke-linejoin: miter"/>
    <path d="M 242.052511 296.222594 
L 256.532476 296.222594 
L 256.532476 34.250423 
L 242.052511 34.250423 
z
" clip-path="url(#p7fcca1d0d7)" style="fill: #ef6c00; stroke: #ef6c00; stroke-linejoin: miter"/>
   </g>
   <g id="patch_13">
    <path d="M 262.35913 299.222594 
L 276.839095 299.222594 
L 276.839095 89.583649 
L 262.35913 89.583649 
L 262.35913 299.222594 
z
" clip-path="url(#p7fcca1d0d7)" style="fill: none; opacity: 0.3; stroke: #000000; stroke-width: 3; stroke-linejoin: miter"/>
    <path d="M 261.35913 296.222594 
L 275.839095 296.222594 
L 275.839095 86.583649 
L 261.35913 86.583649 
z
" clip-path="url(#p7fcca1d0d7)" style="fill: #ef6c00; stroke: #ef6c00; stroke-linejoin: miter"/>
   </g>
   <g id="patch_14">
    <path d="M 281.66575 299.222594 
L 296.145714 299.222594 
L 296.145714 118.045579 
L 281.66575 118.045579 
L 281.66575 299.222594 
z
" clip-path="url(#p7fcca1d0d7)" style="fill: none; opacity: 0.3; stroke: #000000; stroke-width: 3; stroke-linejoin: miter"/>
    <path d="M 280.66575 296.222594 
L 295.145714 296.222594 
L 295.145714 115.045579 
L 280.66575 115.045579 
z
" clip-path="url(#p7fcca1d0d7)" style="fill: #ef6c00; stroke: #ef6c00; stroke-linejoin: miter"/>
   </g>
   <g id="patch_15">
    <path d="M 300.972369 299.222594 
L 315.452333 299.222594 
L 315.452333 131.511438 
L 300.972369 131.511438 
L 300.972369 299.222594 
z
" clip-path="url(#p7fcca1d0d7)" style="fill: none; opacity: 0.3; stroke: #000000; stroke-width: 3; stroke-linejoin: miter"/>
    <path d="M 299.972369 296.222594 
L 314.452333 296.222594 
L 314.452333 128.511438 
L 299.972369 128.511438 
z
" clip-path="url(#p7fcca1d0d7)" style="fill: #ef6c00; stroke: #ef6c00; stroke-linejoin: miter"/>
   </g>
   <g id="patch_16">
    <path d="M 320.278988 299.222594 
L 334.758953 299.222594 
L 334.758953 162.115663 
L 320.278988 162.115663 
L 320.278988 299.222594 
z
" clip-path="url(#p7fcca1d0d7)" style="fill: none; opacity: 0.3; stroke: #000000; stroke-width: 3; stroke-linejoin: miter"/>
    <path d="M 319.278988 296.222594 
L 333.758953 296.222594 
L 333.758953 159.115663 
L 319.278988 159.115663 
z
" clip-path="url(#p7fcca1d0d7)" style="fill: #ef6c00; stroke: #ef6c00; stroke-linejoin: miter"/>
   </g>
   <g id="patch_17">
    <path d="M 339.585608 299.222594 
L 354.065572 299.222594 
L 354.065572 178.947987 
L 339.585608 178.947987 
L 339.585608 299.222594 
z
" clip-path="url(#p7fcca1d0d7)" style="fill: none; opacity: 0.3; stroke: #000000; stroke-width: 3; stroke-linejoin: miter"/>
    <path d="M 338.585608 296.222594 
L 353.065572 296.222594 
L 353.065572 175.947987 
L 338.585608 175.947987 
z
" clip-path="url(#p7fcca1d0d7)" style="fill: #ef6c00; stroke: #ef6c00; stroke-linejoin: miter"/>
   </g>
   <g id="patch_18">
    <path d="M 358.892227 299.222594 
L 373.372191 299.222594 
L 373.372191 188.129255 
L 358.892227 188.129255 
L 358.892227 299.222594 
z
" clip-path="url(#p7fcca1d0d7)" style="fill: none; opacity: 0.3; stroke: #000000; stroke-width: 3; stroke-linejoin: miter"/>
    <path d="M 357.892227 296.222594 
L 372.372191 296.222594 
L 372.372191 185.129255 
L 357.892227 185.129255 
z
" clip-path="url(#p7fcca1d0d7)" style="fill: #ef6c00; stroke: #ef6c00; stroke-linejoin: miter"/>
   </g>
   <g id="patch_19">
    <path d="M 378.198846 299.222594 
L 392.678811 299.222594 
L 392.678811 199.758861 
L 378.198846 199.758861 
L 378.198846 299.222594 
z
" clip-path="url(#p7fcca1d0d7)" style="fill: none; opacity: 0.3; stroke: #000000; stroke-width: 3; stroke-linejoin: miter"/>
    <path d="M 377.198846 296.222594 
L 391.678811 296.222594 
L 391.678811 196.758861 
L 377.198846 196.758861 
z
" clip-path="url(#p7fcca1d0d7)" style="fill: #ef6c00; stroke: #ef6c00; stroke-linejoin: miter"/>
   </g>
   <g id="patch_20">
    <path d="M 397.505466 299.222594 
L 411.98543 299.222594 
L 411.98543 213.836805 
L 397.505466 213.836805 
L 397.505466 299.222594 
z
" clip-path="url(#p7fcca1d0d7)" style="fill: none; opacity: 0.3; stroke: #000000; stroke-width: 3; stroke-linejoin: miter"/>
    <path d="M 396.505466 296.222594 
L 410.98543 296.222594 
L 410.98543 210.836805 
L 396.505466 210.836805 
z
" clip-path="url(#p7fcca1d0d7)" style="fill: #ef6c00; stroke: #ef6c00; stroke-linejoin: miter"/>
   </g>
   <g id="patch_21">
    <path d="M 416.812085 299.222594 
L 431.292049 299.222594 
L 431.292049 212.918678 
L 416.812085 212.918678 
L 416.812085 299.222594 
z
" clip-path="url(#p7fcca1d0d7)" style="fill: none; opacity: 0.3; stroke: #000000; stroke-width: 3; stroke-linejoin: miter"/>
    <path d="M 415.812085 296.222594 
L 430.292049 296.222594 
L 430.292049 209.918678 
L 415.812085 209.918678 
z
" clip-path="url(#p7fcca1d0d7)" style="fill: #ef6c00; stroke: #ef6c00; stroke-linejoin: miter"/>
   </g>
   <g id="patch_22">
    <path d="M 436.118704 299.222594 
L 450.598669 299.222594 
L 450.598669 217.203269 
L 436.118704 217.203269 
L 436.118704 299.222594 
z
" clip-path="url(#p7fcca1d0d7)" style="fill: none; opacity: 0.3; stroke: #000000; stroke-width: 3; stroke-linejoin: miter"/>
    <path d="M 435.118704 296.222594 
L 449.598669 296.222594 
L 449.598669 214.203269 
L 435.118704 214.203269 
z
" clip-path="url(#p7fcca1d0d7)" style="fill: #ef6c00; stroke: #ef6c00; stroke-linejoin: miter"/>
   </g>
   <g id="patch_23">
    <path d="M 455.425324 299.222594 
L 469.905288 299.222594 
L 469.905288 195.780311 
L 455.425324 195.780311 
L 455.425324 299.222594 
z
" clip-path="url(#p7fcca1d0d7)" style="fill: none; opacity: 0.3; stroke: #000000; stroke-width: 3; stroke-linejoin: miter"/>
    <path d="M 454.425324 296.222594 
L 468.905288 296.222594 
L 468.905288 192.780311 
L 454.425324 192.780311 
z
" clip-path="url(#p7fcca1d0d7)" style="fill: #ef6c00; stroke: #ef6c00; stroke-linejoin: miter"/>
   </g>
   <g id="patch_24">
    <path d="M 474.731943 299.222594 
L 489.211907 299.222594 
L 489.211907 138.55041 
L 474.731943 138.55041 
L 474.731943 299.222594 
z
" clip-path="url(#p7fcca1d0d7)" style="fill: none; opacity: 0.3; stroke: #000000; stroke-width: 3; stroke-linejoin: miter"/>
    <path d="M 473.731943 296.222594 
L 488.211907 296.222594 
L 488.211907 135.55041 
L 473.731943 135.55041 
z
" clip-path="url(#p7fcca1d0d7)" style="fill: #ef6c00; stroke: #ef6c00; stroke-linejoin: miter"/>
   </g>
   <g id="patch_25">
    <path d="M 494.038562 299.222594 
L 508.518527 299.222594 
L 508.518527 126.614762 
L 494.038562 126.614762 
L 494.038562 299.222594 
z
" clip-path="url(#p7fcca1d0d7)" style="fill: none; opacity: 0.3; stroke: #000000; stroke-width: 3; stroke-linejoin: miter"/>
    <path d="M 493.038562 296.222594 
L 507.518527 296.222594 
L 507.518527 123.614762 
L 493.038562 123.614762 
z
" clip-path="url(#p7fcca1d0d7)" style="fill: #ef6c00; stroke: #ef6c00; stroke-linejoin: miter"/>
   </g>
   <g id="patch_26">
    <path d="M 513.345181 299.222594 
L 527.825146 299.222594 
L 527.825146 187.823213 
L 513.345181 187.823213 
L 513.345181 299.222594 
z
" clip-path="url(#p7fcca1d0d7)" style="fill: none; opacity: 0.3; stroke: #000000; stroke-width: 3; stroke-linejoin: miter"/>
    <path d="M 512.345181 296.222594 
L 526.825146 296.222594 
L 526.825146 184.823213 
L 512.345181 184.823213 
z
" clip-path="url(#p7fcca1d0d7)" style="fill: #ef6c00; stroke: #ef6c00; stroke-linejoin: miter"/>
   </g>
   <g id="patch_27">
    <path d="M 532.651801 299.222594 
L 547.131765 299.222594 
L 547.131765 257.600847 
L 532.651801 257.600847 
L 532.651801 299.222594 
z
" clip-path="url(#p7fcca1d0d7)" style="fill: none; opacity: 0.3; stroke: #000000; stroke-width: 3; stroke-linejoin: miter"/>
    <path d="M 531.651801 296.222594 
L 546.131765 296.222594 
L 546.131765 254.600847 
L 531.651801 254.600847 
z
" clip-path="url(#p7fcca1d0d7)" style="fill: #ef6c00; stroke: #ef6c00; stroke-linejoin: miter"/>
   </g>
   <g id="patch_28">
    <path d="M 551.95842 299.222594 
L 566.438385 299.222594 
L 566.438385 266.476072 
L 551.95842 266.476072 
L 551.95842 299.222594 
z
" clip-path="url(#p7fcca1d0d7)" style="fill: none; opacity: 0.3; stroke: #000000; stroke-width: 3; stroke-linejoin: miter"/>
    <path d="M 550.95842 296.222594 
L 565.438385 296.222594 
L 565.438385 263.476072 
L 550.95842 263.476072 
z
" clip-path="url(#p7fcca1d0d7)" style="fill: #ef6c00; stroke: #ef6c00; stroke-linejoin: miter"/>
   </g>
   <g id="patch_29">
    <path d="M 571.265039 299.222594 
L 585.745004 299.222594 
L 585.745004 271.984833 
L 571.265039 271.984833 
L 571.265039 299.222594 
z
" clip-path="url(#p7fcca1d0d7)" style="fill: none; opacity: 0.3; stroke: #000000; stroke-width: 3; stroke-linejoin: miter"/>
    <path d="M 570.265039 296.222594 
L 584.745004 296.222594 
L 584.745004 268.984833 
L 570.265039 268.984833 
z
" clip-path="url(#p7fcca1d0d7)" style="fill: #ef6c00; stroke: #ef6c00; stroke-linejoin: miter"/>
   </g>
   <g id="patch_30">
    <path d="M 590.571659 299.222594 
L 605.051623 299.222594 
L 605.051623 271.678791 
L 590.571659 271.678791 
L 590.571659 299.222594 
z
" clip-path="url(#p7fcca1d0d7)" style="fill: none; opacity: 0.3; stroke: #000000; stroke-width: 3; stroke-linejoin: miter"/>
    <path d="M 589.571659 296.222594 
L 604.051623 296.222594 
L 604.051623 268.678791 
L 589.571659 268.678791 
z
" clip-path="url(#p7fcca1d0d7)" style="fill: #ef6c00; stroke: #ef6c00; stroke-linejoin: miter"/>
   </g>
   <g id="patch_31">
    <path d="M 609.878278 299.222594 
L 624.358243 299.222594 
L 624.358243 278.41172 
L 609.878278 278.41172 
L 609.878278 299.222594 
z
" clip-path="url(#p7fcca1d0d7)" style="fill: none; opacity: 0.3; stroke: #000000; stroke-width: 3; stroke-linejoin: miter"/>
    <path d="M 608.878278 296.222594 
L 623.358243 296.222594 
L 623.358243 275.41172 
L 608.878278 275.41172 
z
" clip-path="url(#p7fcca1d0d7)" style="fill: #ef6c00; stroke: #ef6c00; stroke-linejoin: miter"/>
   </g>
   <g id="patch_32">
    <path d="M 629.184897 299.222594 
L 643.664862 299.222594 
L 643.664862 281.472143 
L 629.184897 281.472143 
L 629.184897 299.222594 
z
" clip-path="url(#p7fcca1d0d7)" style="fill: none; opacity: 0.3; stroke: #000000; stroke-width: 3; stroke-linejoin: miter"/>
    <path d="M 628.184897 296.222594 
L 642.664862 296.222594 
L 642.664862 278.472143 
L 628.184897 278.472143 
z
" clip-path="url(#p7fcca1d0d7)" style="fill: #ef6c00; stroke: #ef6c00; stroke-linejoin: miter"/>
   </g>
   <g id="patch_33">
    <path d="M 39.765625 296.222594 
L 645.095625 296.222594 
" style="fill: none; stroke: #000000; stroke-width: 0.8; stroke-linejoin: miter; stroke-linecap: square"/>
   </g>
  </g>
  <g id="axes_2">
   <g id="matplotlib.axis_3">
    <g id="ytick_6">
     <g id="line2d_22">
      <defs>
       <path id="m6256de74dd" d="M 0 0 
L 3.5 0 
" style="stroke: #000000; stroke-width: 0.8"/>
      </defs>
      <g>
       <use xlink:href="#m6256de74dd" x="645.095625" y="296.222594" style="stroke: #000000; stroke-width: 0.8"/>
      </g>
     </g>
     <g id="text_19">
      <!-- 0 -->
      <g transform="translate(652.095625 300.021813) scale(0.1 -0.1)">
       <use xlink:href="#DejaVuSans-30"/>
      </g>
     </g>
    </g>
    <g id="ytick_7">
     <g id="line2d_23">
      <g>
       <use xlink:href="#m6256de74dd" x="645.095625" y="237.737919" style="stroke: #000000; stroke-width: 0.8"/>
      </g>
     </g>
     <g id="text_20">
      <!-- 2000 -->
      <g transform="translate(652.095625 241.537138) scale(0.1 -0.1)">
       <use xlink:href="#DejaVuSans-32"/>
       <use xlink:href="#DejaVuSans-30" x="63.623047"/>
       <use xlink:href="#DejaVuSans-30" x="127.246094"/>
       <use xlink:href="#DejaVuSans-30" x="190.869141"/>
      </g>
     </g>
    </g>
    <g id="ytick_8">
     <g id="line2d_24">
      <g>
       <use xlink:href="#m6256de74dd" x="645.095625" y="179.253244" style="stroke: #000000; stroke-width: 0.8"/>
      </g>
     </g>
     <g id="text_21">
      <!-- 4000 -->
      <g transform="translate(652.095625 183.052463) scale(0.1 -0.1)">
       <use xlink:href="#DejaVuSans-34"/>
       <use xlink:href="#DejaVuSans-30" x="63.623047"/>
       <use xlink:href="#DejaVuSans-30" x="127.246094"/>
       <use xlink:href="#DejaVuSans-30" x="190.869141"/>
      </g>
     </g>
    </g>
    <g id="ytick_9">
     <g id="line2d_25">
      <g>
       <use xlink:href="#m6256de74dd" x="645.095625" y="120.768569" style="stroke: #000000; stroke-width: 0.8"/>
      </g>
     </g>
     <g id="text_22">
      <!-- 6000 -->
      <g transform="translate(652.095625 124.567787) scale(0.1 -0.1)">
       <use xlink:href="#DejaVuSans-36"/>
       <use xlink:href="#DejaVuSans-30" x="63.623047"/>
       <use xlink:href="#DejaVuSans-30" x="127.246094"/>
       <use xlink:href="#DejaVuSans-30" x="190.869141"/>
      </g>
     </g>
    </g>
    <g id="ytick_10">
     <g id="line2d_26">
      <g>
       <use xlink:href="#m6256de74dd" x="645.095625" y="62.283894" style="stroke: #000000; stroke-width: 0.8"/>
      </g>
     </g>
     <g id="text_23">
      <!-- 8000 -->
      <g transform="translate(652.095625 66.083113) scale(0.1 -0.1)">
       <use xlink:href="#DejaVuSans-38"/>
       <use xlink:href="#DejaVuSans-30" x="63.623047"/>
       <use xlink:href="#DejaVuSans-30" x="127.246094"/>
       <use xlink:href="#DejaVuSans-30" x="190.869141"/>
      </g>
     </g>
    </g>
    <g id="ytick_11">
     <g id="line2d_27">
      <g>
       <use xlink:href="#m6256de74dd" x="645.095625" y="3.799219" style="stroke: #000000; stroke-width: 0.8"/>
      </g>
     </g>
     <g id="text_24">
      <!-- 10000 -->
      <g transform="translate(652.095625 7.598438) scale(0.1 -0.1)">
       <use xlink:href="#DejaVuSans-31"/>
       <use xlink:href="#DejaVuSans-30" x="63.623047"/>
       <use xlink:href="#DejaVuSans-30" x="127.246094"/>
       <use xlink:href="#DejaVuSans-30" x="190.869141"/>
       <use xlink:href="#DejaVuSans-30" x="254.492188"/>
      </g>
     </g>
    </g>
    <g id="ytick_12">
     <g id="line2d_28">
      <g>
       <use xlink:href="#m6256de74dd" x="645.095625" y="147.028188" style="stroke: #000000; stroke-width: 0.8"/>
      </g>
     </g>
     <g id="text_25">
      <!-- 5102 -->
      <g transform="translate(652.095625 150.827407) scale(0.1 -0.1)">
       <use xlink:href="#DejaVuSans-35"/>
       <use xlink:href="#DejaVuSans-31" x="63.623047"/>
       <use xlink:href="#DejaVuSans-30" x="127.246094"/>
       <use xlink:href="#DejaVuSans-32" x="190.869141"/>
      </g>
     </g>
    </g>
    <g id="text_26">
     <!-- CDF -->
     <g transform="translate(695.506563 160.228094) rotate(-90) scale(0.1 -0.1)">
      <defs>
       <path id="DejaVuSans-43" d="M 4122 4306 
L 4122 3641 
Q 3803 3938 3442 4084 
Q 3081 4231 2675 4231 
Q 1875 4231 1450 3742 
Q 1025 3253 1025 2328 
Q 1025 1406 1450 917 
Q 1875 428 2675 428 
Q 3081 428 3442 575 
Q 3803 722 4122 1019 
L 4122 359 
Q 3791 134 3420 21 
Q 3050 -91 2638 -91 
Q 1578 -91 968 557 
Q 359 1206 359 2328 
Q 359 3453 968 4101 
Q 1578 4750 2638 4750 
Q 3056 4750 3426 4639 
Q 3797 4528 4122 4306 
z
" transform="scale(0.015625)"/>
      </defs>
      <use xlink:href="#DejaVuSans-43"/>
      <use xlink:href="#DejaVuSans-44" x="69.824219"/>
      <use xlink:href="#DejaVuSans-46" x="146.826172"/>
     </g>
    </g>
   </g>
   <g id="line2d_29">
    <path d="M 87.186229 298.164109 
L 106.492848 298.840416 
L 125.799468 299.14536 
L 145.106087 297.872685 
L 164.412706 292.855744 
L 183.719326 282.671448 
L 203.025945 267.101127 
L 222.332564 246.866279 
L 241.639184 223.661466 
L 260.945803 199.805303 
L 280.252422 177.54364 
L 299.559042 158.284892 
L 318.865661 142.559258 
L 338.17228 129.497717 
L 357.4789 118.034975 
L 376.785519 107.955749 
L 396.092138 99.431195 
L 415.398757 91.637552 
L 434.705377 82.796003 
L 454.011996 72.213064 
L 473.318615 60.281046 
L 492.625235 47.831687 
L 511.931854 35.905393 
L 531.238473 25.631093 
L 550.545093 17.889695 
L 569.851712 12.940258 
L 589.158331 10.540007 
L 608.464951 9.427222 
L 627.77157 8.07147 
L 647.078189 5.799219 
" clip-path="url(#p7fcca1d0d7)" style="fill: none; opacity: 0.3; stroke-dasharray: 7.4,3.2; stroke-dashoffset: 0; stroke: #000000; stroke-width: 3"/>
    <path d="M 85.186229 296.164109 
L 104.492848 296.840416 
L 123.799468 297.14536 
L 143.106087 295.872685 
L 162.412706 290.855744 
L 181.719326 280.671448 
L 201.025945 265.101127 
L 220.332564 244.866279 
L 239.639184 221.661466 
L 258.945803 197.805303 
L 278.252422 175.54364 
L 297.559042 156.284892 
L 316.865661 140.559258 
L 336.17228 127.497717 
L 355.4789 116.034975 
L 374.785519 105.955749 
L 394.092138 97.431195 
L 413.398757 89.637552 
L 432.705377 80.796003 
L 452.011996 70.213064 
L 471.318615 58.281046 
L 490.625235 45.831687 
L 509.931854 33.905393 
L 529.238473 23.631093 
L 548.545093 15.889695 
L 567.851712 10.940258 
L 587.158331 8.540007 
L 606.464951 7.427222 
L 625.77157 6.07147 
L 645.078189 3.799219 
" clip-path="url(#p7fcca1d0d7)" style="fill: none; stroke-dasharray: 7.4,3.2; stroke-dashoffset: 0; stroke: #8085e9; stroke-width: 2"/>
   </g>
   <g id="LineCollection_1">
    <path d="M -1 147.028188 
L 645.095625 147.028188 
" clip-path="url(#p7fcca1d0d7)" style="fill: none; stroke-dasharray: 6,10,2,10; stroke-dashoffset: 0; stroke: #ff0000; stroke-width: 2"/>
   </g>
   <g id="patch_34">
    <path d="M 39.765625 296.222594 
L 645.095625 296.222594 
" style="fill: none; stroke: #000000; stroke-width: 0.8; stroke-linejoin: miter; stroke-linecap: square"/>
   </g>
  </g>
 </g>
 <defs>
  <clipPath id="p7fcca1d0d7">
   <rect x="39.765625" y="3.799219" width="605.33" height="292.423375"/>
  </clipPath>
 </defs>
</svg>
